<svg width="399" height="186" viewBox="0 0 399 186" fill="none" xmlns="http://www.w3.org/2000/svg">
<path d="M6.39879 48.2727L4.47468 49.224C3.87821 49.5189 3.16109 49.4101 2.67889 48.9516C1.66879 47.9912 1.08639e-07 48.7072 1.11685e-07 50.101L3.89227e-07 177.09C3.98883e-07 181.508 3.58172 185.09 7.99999 185.09L391 185.09C395.418 185.09 399 181.508 399 177.09L399 20.3919C399 19.3709 398.231 18.5139 397.216 18.4036L392.795 17.9231C392.107 17.8484 391.429 18.1345 391.003 18.6797L388.071 22.4304C387.93 22.6103 387.822 22.813 387.749 23.0297L385.895 28.5949C385.438 29.9661 383.58 30.1633 382.845 28.9187C382.099 27.6554 380.208 27.8822 379.782 29.286L378.035 35.0427C377.862 35.6134 377.443 36.077 376.893 36.3072L375.242 36.9979C374.639 37.2501 373.951 37.1919 373.399 36.8421L371.342 35.538C371.212 35.4557 371.092 35.3587 370.985 35.2489L365.756 29.9156C364.714 28.8532 362.918 29.2595 362.436 30.6669L360.682 35.7788C360.476 36.3819 359.994 36.8502 359.385 37.0396L357.592 37.5975C356.928 37.8041 356.205 37.651 355.681 37.1931L353.865 35.6044C353.352 35.1558 352.646 34.9991 351.992 35.1888L347.783 36.4082C346.672 36.7302 345.52 36.0453 345.273 34.9153L342.891 24.0448C342.714 23.236 342.057 22.6201 341.238 22.4956L339.939 22.298C339.412 22.2177 338.874 22.3515 338.446 22.6695L332.26 27.2624C331.962 27.4841 331.607 27.6182 331.237 27.6495L330.337 27.7256C329.372 27.8071 328.488 27.186 328.237 26.251L325.994 17.8912C325.617 16.486 323.913 15.9407 322.79 16.866L322.14 17.4022C321.467 17.9562 320.513 18.0113 319.782 17.5382L318.142 16.4779C317.746 16.2219 317.272 16.114 316.804 16.1734L314.647 16.4469C314.48 16.4681 314.311 16.4681 314.144 16.4469L312.223 16.2034C311.616 16.1264 311.077 15.7757 310.762 15.2515L308.753 11.9184C308.082 10.8043 306.543 10.6173 305.624 11.5383L304.188 12.978C303.813 13.3542 303.303 13.5656 302.772 13.5656L302.057 13.5656C301.297 13.5656 300.603 13.9962 300.265 14.6768L298.614 18.0052C297.995 19.2542 296.319 19.5018 295.365 18.4854L294.169 17.2123C293.961 16.991 293.706 16.8199 293.422 16.712L291.21 15.8708C290.677 15.6679 290.082 15.7026 289.576 15.966L284.422 18.6485C283.993 18.8717 283.498 18.932 283.028 18.8183L281.062 18.3426C280.361 18.1728 279.622 18.3943 279.13 18.9221L276.528 21.7108C276.247 22.0114 275.881 22.2182 275.479 22.3032L273.356 22.7517C273.097 22.8065 272.829 22.8092 272.569 22.7597L270.206 22.3103C269.738 22.2214 269.255 22.3021 268.841 22.5379L267.812 23.1249C266.824 23.6887 265.565 23.3155 265.044 22.3041L262.899 18.1446C262.655 17.6716 262.233 17.3153 261.726 17.1545L259.147 16.3372C258.631 16.1738 258.204 15.8084 257.962 15.3245L252.037 3.46525C251.835 3.06044 251.502 2.73618 251.091 2.54544L250.719 2.37227C249.603 1.85349 248.287 2.45624 247.952 3.64031L246.935 7.22669C246.367 9.22766 243.502 9.14082 243.057 7.10915L241.969 2.14628C241.652 0.697551 239.924 0.0861637 238.766 1.01312L235.77 3.41187C235.108 3.94201 234.183 3.99684 233.463 3.54866L231.892 2.57079C231.245 2.16815 230.425 2.16815 229.778 2.57079L227.613 3.91861C227.22 4.16302 226.924 4.53601 226.775 4.97406L224.464 11.7877C224.307 12.2507 223.985 12.6401 223.561 12.8823L221.299 14.1725C220.564 14.5917 219.637 14.4449 219.068 13.8193C218.12 12.7779 216.398 13.1728 215.998 14.523L214.199 20.6075C213.947 21.4572 213.167 22.0402 212.281 22.0402L210.506 22.0402C210.139 22.0402 209.779 21.9394 209.466 21.7487L207.145 20.3365C206.707 20.0701 206.389 19.6458 206.255 19.1512L203.558 9.20512C203.263 8.11563 202.032 7.58291 201.036 8.11343C200.185 8.56638 199.128 8.24989 198.667 7.4039L197.426 5.13016C196.668 3.74091 194.673 3.74091 193.915 5.13016L192.315 8.06101C192.016 8.60926 191.478 8.98627 190.86 9.0802L188.922 9.37506C188.554 9.43109 188.177 9.38313 187.835 9.23657L187.723 9.18902C186.594 8.70583 185.3 9.34533 184.998 10.5359L182.216 21.5023C181.952 22.5426 180.914 23.1891 179.864 22.9672L179.639 22.9197C178.995 22.7836 178.325 22.9734 177.848 23.4271L176.506 24.7023C175.734 25.4364 174.522 25.4364 173.75 24.7023L171.736 22.7873C171.246 22.3213 170.553 22.1345 169.895 22.2909L169.149 22.4684C168.53 22.6155 168.018 23.0479 167.77 23.6333L165.016 30.1267C164.803 30.6284 164.395 31.0215 163.886 31.2152L162.719 31.6589C161.835 31.9953 160.836 31.6657 160.325 30.8692L159.847 30.1247C158.964 28.7466 156.889 28.9561 156.299 30.4831L150.977 44.2457C150.833 44.6171 150.582 44.9372 150.255 45.165L147.022 47.4198C146.731 47.6221 146.5 47.8977 146.351 48.2186L144.241 52.7655C143.832 53.6473 142.713 53.9249 141.939 53.3364C141.128 52.7192 139.951 53.0584 139.592 54.0127L137.764 58.8794C137.323 60.0543 135.822 60.3918 134.92 59.5188C134.016 58.6432 132.51 58.9859 132.073 60.1667L130.484 64.4656C130.132 65.4171 129.123 65.9545 128.137 65.7158L126.037 65.2075L119.647 63.1418C119.273 63.0209 118.943 62.7925 118.698 62.4851L116.47 59.6891C115.943 59.028 115.058 58.7694 114.258 59.0432L113.504 59.3014C112.675 59.5851 111.758 59.2963 111.241 58.5888L110.771 57.9452C109.841 56.6725 107.874 56.9249 107.295 58.391L105.7 62.4366C105.566 62.7766 105.341 63.0734 105.05 63.2947L101.837 65.739C101.499 65.9959 101.251 66.3536 101.13 66.7603L95.8363 84.5458C95.4483 85.8493 93.9006 86.3937 92.7819 85.6202L91.7332 84.895C91.399 84.6639 91.0022 84.54 90.5957 84.54L87.8409 84.54C87.3279 84.54 86.8346 84.3429 86.4628 83.9895L86.329 83.8623C85.3223 82.9051 83.6704 83.2405 83.1167 84.5145L79.869 91.9872C79.0853 93.7904 76.4427 93.499 76.0708 91.5683L70.7428 63.9085C70.5208 62.7561 69.3589 62.0416 68.2303 62.3635L66.4208 62.8797C66.2423 62.9306 66.0577 62.9564 65.8722 62.9564L64.142 62.9564C63.6431 62.9564 63.1622 63.1429 62.7937 63.4792L60.9867 65.1286C60.333 65.7252 59.3649 65.8213 58.6067 65.3647L56.5839 64.1467C56.0332 63.815 55.3565 63.7683 54.7655 64.0212L53.4656 64.5774C53.1105 64.7294 52.7189 64.7752 52.3382 64.7094L50.7995 64.4434C49.8193 64.2739 48.8636 64.8506 48.5565 65.7967L45.9351 73.8721C45.7316 74.4991 45.2322 74.9855 44.6001 75.1725L43.4715 75.5063C42.8476 75.6909 42.3525 76.1673 42.1441 76.7837L40.0264 83.0481C39.6563 84.1428 38.4382 84.697 37.3698 84.2568L36.2829 83.8089C35.5955 83.5257 34.8078 83.6472 34.2376 84.1242L32.644 85.4576C32.0564 85.9492 31.2395 86.062 30.5407 85.7479L28.883 85.0028C28.2538 84.72 27.5181 84.8234 26.9912 85.2687C25.9602 86.1401 24.3723 85.6021 24.0834 84.2834L22.33 76.2812C22.0264 74.8958 20.0884 74.797 19.6455 76.1444C19.2066 77.4799 17.2906 77.3986 16.9664 76.0308L10.7563 49.8361C10.5682 49.0427 9.9172 48.4429 9.11102 48.3202L7.58599 48.0882C7.18071 48.0266 6.76627 48.091 6.39879 48.2727Z" fill="url(#paint0_linear_1038_5262)"/>
<defs>
<linearGradient id="paint0_linear_1038_5262" x1="199.5" y1="-111.434" x2="199.5" y2="162.87" gradientUnits="userSpaceOnUse">
<stop stop-color="#51B276"/>
<stop offset="1" stop-color="#282F36"/>
</linearGradient>
</defs>
</svg>
