<svg xmlns="http://www.w3.org/2000/svg" xmlns:xlink="http://www.w3.org/1999/xlink" viewBox="0 0 708.97 480.24"><defs><style>.cls-1{isolation:isolate;}.cls-2{opacity:0.42;}.cls-3{fill:#fff;}.cls-4,.cls-5,.cls-6,.cls-7{mix-blend-mode:overlay;opacity:0.5;}.cls-4{fill:url(#linear-gradient);}.cls-5{fill:url(#linear-gradient-2);}.cls-6{fill:url(#linear-gradient-3);}.cls-7{fill:url(#linear-gradient-4);}</style><linearGradient id="linear-gradient" x1="96.82" y1="114.13" x2="-50.25" y2="17.11" gradientUnits="userSpaceOnUse"><stop offset="0" stop-color="#fff"/><stop offset="0.89" stop-color="#1d262d" stop-opacity="0"/></linearGradient><linearGradient id="linear-gradient-2" x1="569.81" y1="148.34" x2="717.89" y2="-41.61" xlink:href="#linear-gradient"/><linearGradient id="linear-gradient-3" x1="171.36" y1="359.66" x2="32.47" y2="445.44" xlink:href="#linear-gradient"/><linearGradient id="linear-gradient-4" x1="534.52" y1="403.59" x2="587.97" y2="465.55" xlink:href="#linear-gradient"/></defs><g class="cls-1"><g id="Layer_2" data-name="Layer 2"><g id="BACKGROUND"><g class="cls-2"><circle class="cls-3" cx="421.46" cy="97.75" r="1.18"/><circle class="cls-3" cx="284.27" cy="141.15" r="1.18"/><circle class="cls-3" cx="439.87" cy="206.06" r="1.18"/><circle class="cls-3" cx="474.35" cy="262.17" r="1.18"/><path class="cls-3" d="M406.26,181.57a1.18,1.18,0,1,1-1.18-1.18A1.17,1.17,0,0,1,406.26,181.57Z"/><circle class="cls-3" cx="537.46" cy="171.28" r="1.18"/><path class="cls-3" d="M375.13,65.63A1.18,1.18,0,1,1,374,64.45,1.18,1.18,0,0,1,375.13,65.63Z"/><path class="cls-3" d="M299.7,87.46a1.18,1.18,0,1,1-1.17-1.17A1.17,1.17,0,0,1,299.7,87.46Z"/><circle class="cls-3" cx="260.58" cy="88.44" r="1.18"/><path class="cls-3" d="M240.93,154.41a1.18,1.18,0,1,1-1.18-1.18A1.17,1.17,0,0,1,240.93,154.41Z"/><circle class="cls-3" cx="264.07" cy="190.63" r="1.18"/><path class="cls-3" d="M180.56,277.49a1.18,1.18,0,1,1-1.18-1.18A1.17,1.17,0,0,1,180.56,277.49Z"/><path class="cls-3" d="M189.06,254.6a1.18,1.18,0,1,1-1.18-1.18A1.17,1.17,0,0,1,189.06,254.6Z"/><path class="cls-3" d="M141.18,383a1.18,1.18,0,0,1-2.35,0,1.18,1.18,0,1,1,2.35,0Z"/><path class="cls-3" d="M160,344.37a1.18,1.18,0,1,1-1.17-1.18A1.17,1.17,0,0,1,160,344.37Z"/><circle class="cls-3" cx="172.23" cy="453.68" r="1.18"/><path class="cls-3" d="M131,479.07a1.18,1.18,0,1,1-1.18-1.18A1.17,1.17,0,0,1,131,479.07Z"/><path class="cls-3" d="M335.47,467.11a1.18,1.18,0,1,1-1.18-1.17A1.18,1.18,0,0,1,335.47,467.11Z"/><path class="cls-3" d="M413.85,457.75a1.18,1.18,0,1,1-1.18-1.18A1.18,1.18,0,0,1,413.85,457.75Z"/><path class="cls-3" d="M431.83,411.63a1.18,1.18,0,1,1-1.17-1.17A1.18,1.18,0,0,1,431.83,411.63Z"/><path class="cls-3" d="M346.76,400.4a1.18,1.18,0,1,1-1.18-1.18A1.18,1.18,0,0,1,346.76,400.4Z"/><path class="cls-3" d="M339.16,372.84a1.18,1.18,0,1,1-1.18-1.18A1.17,1.17,0,0,1,339.16,372.84Z"/><path class="cls-3" d="M321,373.81a1.18,1.18,0,0,1-2.35,0,1.18,1.18,0,1,1,2.35,0Z"/><circle class="cls-3" cx="542.1" cy="387.89" r="1.18"/><circle class="cls-3" cx="493.05" cy="379.49" r="1.18"/><path class="cls-3" d="M546.21,341.61a1.18,1.18,0,1,1-1.18-1.18A1.18,1.18,0,0,1,546.21,341.61Z"/><circle class="cls-3" cx="558.39" cy="285.88" r="1.18"/><circle class="cls-3" cx="532.93" cy="267.88" r="1.18"/><circle class="cls-3" cx="543.78" cy="217.65" r="1.18"/><circle class="cls-3" cx="550.27" cy="217.67" r="1.18"/><circle class="cls-3" cx="409.06" cy="127.99" r="1.18"/><circle class="cls-3" cx="320.29" cy="165.83" r="1.18"/><circle class="cls-3" cx="381.27" cy="179.9" r="1.18"/><path class="cls-3" d="M173.11,181a1.18,1.18,0,1,1-2.35,0,1.18,1.18,0,0,1,2.35,0Z"/><circle class="cls-3" cx="136.05" cy="233.84" r="1.18"/><path class="cls-3" d="M123.09,273.59a1.18,1.18,0,1,1-1.18-1.18A1.17,1.17,0,0,1,123.09,273.59Z"/><path class="cls-3" d="M131.65,156.46a1.18,1.18,0,1,1-1.18-1.17A1.18,1.18,0,0,1,131.65,156.46Z"/><path class="cls-3" d="M138.35,65.05a1.18,1.18,0,1,1-1.18-1.18A1.17,1.17,0,0,1,138.35,65.05Z"/><circle class="cls-3" cx="169.34" cy="57.42" r="1.18"/><path class="cls-3" d="M322.35,51.51a1.18,1.18,0,1,1-1.18-1.18A1.17,1.17,0,0,1,322.35,51.51Z"/><path class="cls-3" d="M275.06,63.75a1.18,1.18,0,0,1-2.35,0,1.18,1.18,0,1,1,2.35,0Z"/><circle class="cls-3" cx="410.94" cy="49.58" r="1.18"/><path class="cls-3" d="M399.76,86.41a1.18,1.18,0,1,1-1.18-1.18A1.17,1.17,0,0,1,399.76,86.41Z"/><circle class="cls-3" cx="376.73" cy="125.16" r="1.18"/><path class="cls-3" d="M296.86,170.58a1.18,1.18,0,1,1-1.18-1.18A1.17,1.17,0,0,1,296.86,170.58Z"/><circle class="cls-3" cx="268.62" cy="187.27" r="1.18"/><circle class="cls-3" cx="227.54" cy="238.57" r="1.18"/><circle class="cls-3" cx="220.06" cy="263.28" r="1.18"/><circle class="cls-3" cx="227.61" cy="303" r="1.18"/><path class="cls-3" d="M241.1,333.24a1.18,1.18,0,1,1-1.17-1.17A1.17,1.17,0,0,1,241.1,333.24Z"/><circle class="cls-3" cx="304.82" cy="350.95" r="1.18"/><circle class="cls-3" cx="355.88" cy="358.52" r="1.18"/><path class="cls-3" d="M376.12,363.46a1.18,1.18,0,1,1-1.17-1.17A1.17,1.17,0,0,1,376.12,363.46Z"/><circle class="cls-3" cx="433.53" cy="345.62" r="1.18"/><path class="cls-3" d="M438.43,309.75a1.18,1.18,0,0,1-2.35,0,1.18,1.18,0,1,1,2.35,0Z"/><circle class="cls-3" cx="424.64" cy="241.54" r="1.18"/><path class="cls-3" d="M409.65,228.18a1.18,1.18,0,1,1-1.17-1.17A1.17,1.17,0,0,1,409.65,228.18Z"/><circle class="cls-3" cx="408.73" cy="199.73" r="1.18"/><path class="cls-3" d="M258.05,210.34a1.18,1.18,0,1,1-1.17-1.17A1.17,1.17,0,0,1,258.05,210.34Z"/><path class="cls-3" d="M252.49,230.25a1.18,1.18,0,1,1-1.18-1.18A1.17,1.17,0,0,1,252.49,230.25Z"/><path class="cls-3" d="M253.51,280.28a1.18,1.18,0,1,1-1.18-1.18A1.18,1.18,0,0,1,253.51,280.28Z"/><circle class="cls-3" cx="394.44" cy="332.29" r="1.18"/><path class="cls-3" d="M407.88,319a1.18,1.18,0,1,1-1.17-1.17A1.18,1.18,0,0,1,407.88,319Z"/><circle class="cls-3" cx="419.1" cy="310.39" r="1.18"/><path class="cls-3" d="M446,297.24a1.18,1.18,0,1,1-1.18-1.17A1.18,1.18,0,0,1,446,297.24Z"/><path class="cls-3" d="M461.85,272.69a1.18,1.18,0,1,1-2.35,0,1.18,1.18,0,0,1,2.35,0Z"/><circle class="cls-3" cx="466.63" cy="247.9" r="1.18"/><path class="cls-3" d="M469.94,233.49a1.18,1.18,0,1,1-2.35,0,1.18,1.18,0,0,1,2.35,0Z"/><path class="cls-3" d="M444,232.84a1.18,1.18,0,1,1-2.35,0,1.18,1.18,0,0,1,2.35,0Z"/><circle class="cls-3" cx="454.09" cy="205.67" r="1.18"/><path class="cls-3" d="M459.06,208.23a1.18,1.18,0,1,1-1.18-1.18A1.18,1.18,0,0,1,459.06,208.23Z"/><path class="cls-3" d="M491,262.15a1.18,1.18,0,1,1-1.18-1.18A1.18,1.18,0,0,1,491,262.15Z"/><circle class="cls-3" cx="476.38" cy="287.89" r="1.18"/><path class="cls-3" d="M475.5,286.42a1.18,1.18,0,1,1-1.18-1.18A1.18,1.18,0,0,1,475.5,286.42Z"/><circle class="cls-3" cx="439.21" cy="371.14" r="1.18"/></g><circle class="cls-3" cx="264.54" cy="130.99" r="1.18"/><path class="cls-3" d="M331,152.9a1.18,1.18,0,0,1-2.35,0,1.18,1.18,0,1,1,2.35,0Z"/><circle class="cls-3" cx="256.06" cy="179.29" r="1.18"/><path class="cls-3" d="M268.65,159.4a1.18,1.18,0,1,1-1.18-1.18A1.17,1.17,0,0,1,268.65,159.4Z"/><path class="cls-3" d="M398.82,189.6a1.18,1.18,0,1,1-1.18-1.18A1.17,1.17,0,0,1,398.82,189.6Z"/><circle class="cls-3" cx="252.38" cy="217.88" r="1.18"/><path class="cls-3" d="M248.89,260.19a1.18,1.18,0,0,1-2.35,0,1.18,1.18,0,1,1,2.35,0Z"/><path class="cls-3" d="M415.74,246.22a1.18,1.18,0,0,1-2.35,0,1.18,1.18,0,1,1,2.35,0Z"/><circle class="cls-3" cx="426.94" cy="213.13" r="1.18"/><path class="cls-3" d="M378.09,154.69a1.18,1.18,0,1,1-1.17-1.17A1.17,1.17,0,0,1,378.09,154.69Z"/><circle class="cls-3" cx="398.65" cy="120.68" r="1.18"/><circle class="cls-3" cx="310.89" cy="107.33" r="1.18"/><path class="cls-3" d="M312.05,129.23a1.18,1.18,0,1,1-1.17-1.17A1.17,1.17,0,0,1,312.05,129.23Z"/><circle class="cls-3" cx="470.24" cy="278.16" r="1.18"/><path class="cls-3" d="M452.53,342.22a1.18,1.18,0,1,1-1.17-1.18A1.17,1.17,0,0,1,452.53,342.22Z"/><circle class="cls-3" cx="453.25" cy="390.34" r="1.18"/><path class="cls-3" d="M369.69,430a1.18,1.18,0,1,1-1.17-1.18A1.17,1.17,0,0,1,369.69,430Z"/><circle class="cls-3" cx="332.48" cy="434.81" r="1.18"/><circle class="cls-3" cx="315.38" cy="403.59" r="1.18"/><circle class="cls-3" cx="355.34" cy="397.91" r="1.18"/><path class="cls-3" d="M349,376a1.18,1.18,0,1,1-1.18-1.18A1.18,1.18,0,0,1,349,376Z"/><circle class="cls-3" cx="330.5" cy="379.83" r="1.18"/><circle class="cls-3" cx="170.35" cy="339.42" r="1.18"/><circle class="cls-3" cx="196.82" cy="365.9" r="1.18"/><path class="cls-3" d="M278.08,339.42a1.18,1.18,0,1,1-1.17-1.17A1.17,1.17,0,0,1,278.08,339.42Z"/><circle class="cls-3" cx="245.82" cy="280.19" r="1.18"/><path class="cls-3" d="M191.29,278.15a1.18,1.18,0,1,1-1.18-1.18A1.18,1.18,0,0,1,191.29,278.15Z"/><path class="cls-3" d="M96.54,47.79a1.18,1.18,0,1,1-1.17-1.17A1.17,1.17,0,0,1,96.54,47.79Z"/><path class="cls-3" d="M161.8,69.7a1.18,1.18,0,1,1-1.17-1.18A1.18,1.18,0,0,1,161.8,69.7Z"/><circle class="cls-3" cx="86.89" cy="96.09" r="1.18"/><circle class="cls-3" cx="98.3" cy="76.2" r="1.18"/><path class="cls-3" d="M229.64,106.4a1.18,1.18,0,1,1-1.17-1.18A1.17,1.17,0,0,1,229.64,106.4Z"/><circle class="cls-3" cx="83.21" cy="134.68" r="1.18"/><circle class="cls-3" cx="78.55" cy="176.99" r="1.18"/><path class="cls-3" d="M246.57,163a1.18,1.18,0,1,1-1.17-1.18A1.17,1.17,0,0,1,246.57,163Z"/><path class="cls-3" d="M259,129.93a1.18,1.18,0,1,1-1.18-1.17A1.18,1.18,0,0,1,259,129.93Z"/><path class="cls-3" d="M208.92,71.5a1.18,1.18,0,1,1-1.17-1.18A1.17,1.17,0,0,1,208.92,71.5Z"/><path class="cls-3" d="M230.65,37.48a1.18,1.18,0,1,1-1.18-1.18A1.18,1.18,0,0,1,230.65,37.48Z"/><path class="cls-3" d="M142.89,24.14A1.18,1.18,0,1,1,141.71,23,1.17,1.17,0,0,1,142.89,24.14Z"/><path class="cls-3" d="M142.88,46a1.18,1.18,0,1,1-1.18-1.18A1.17,1.17,0,0,1,142.88,46Z"/><circle class="cls-3" cx="301.06" cy="194.97" r="1.18"/><path class="cls-3" d="M283.36,259a1.18,1.18,0,1,1-1.18-1.18A1.17,1.17,0,0,1,283.36,259Z"/><path class="cls-3" d="M285.25,307.14a1.18,1.18,0,1,1-1.17-1.17A1.17,1.17,0,0,1,285.25,307.14Z"/><circle class="cls-3" cx="199.34" cy="346.84" r="1.18"/><circle class="cls-3" cx="163.3" cy="351.61" r="1.18"/><path class="cls-3" d="M147.38,320.4a1.18,1.18,0,1,1-1.18-1.18A1.17,1.17,0,0,1,147.38,320.4Z"/><path class="cls-3" d="M187.34,314.71a1.18,1.18,0,1,1-1.18-1.17A1.18,1.18,0,0,1,187.34,314.71Z"/><path class="cls-3" d="M179.8,292.76a1.18,1.18,0,1,1-2.35,0,1.18,1.18,0,0,1,2.35,0Z"/><path class="cls-3" d="M162.5,296.63a1.18,1.18,0,1,1-1.17-1.18A1.17,1.17,0,0,1,162.5,296.63Z"/><path class="cls-3" d="M2.35,256.22A1.18,1.18,0,1,1,1.18,255,1.17,1.17,0,0,1,2.35,256.22Z"/><circle class="cls-3" cx="27.65" cy="282.7" r="1.18"/><path class="cls-3" d="M108.91,256.23a1.18,1.18,0,1,1-1.18-1.18A1.18,1.18,0,0,1,108.91,256.23Z"/><circle class="cls-3" cx="76.65" cy="197" r="1.18"/><path class="cls-3" d="M22.11,195a1.18,1.18,0,0,1-2.35,0,1.18,1.18,0,1,1,2.35,0Z"/><path class="cls-3" d="M445.73,163.05a1.18,1.18,0,1,1-2.35,0,1.18,1.18,0,0,1,2.35,0Z"/><path class="cls-3" d="M511,185a1.18,1.18,0,1,1-1.17-1.18A1.17,1.17,0,0,1,511,185Z"/><path class="cls-3" d="M437.25,211.35a1.18,1.18,0,1,1-1.18-1.18A1.18,1.18,0,0,1,437.25,211.35Z"/><path class="cls-3" d="M448.66,191.46a1.18,1.18,0,1,1-1.18-1.18A1.18,1.18,0,0,1,448.66,191.46Z"/><circle class="cls-3" cx="577.65" cy="221.66" r="1.18"/><path class="cls-3" d="M433.57,249.94a1.18,1.18,0,1,1-1.18-1.18A1.18,1.18,0,0,1,433.57,249.94Z"/><path class="cls-3" d="M428.91,292.25a1.18,1.18,0,1,1-1.18-1.18A1.18,1.18,0,0,1,428.91,292.25Z"/><path class="cls-3" d="M595.76,278.28a1.18,1.18,0,1,1-1.18-1.18A1.18,1.18,0,0,1,595.76,278.28Z"/><circle class="cls-3" cx="606.95" cy="245.19" r="1.18"/><circle class="cls-3" cx="556.93" cy="186.76" r="1.18"/><circle class="cls-3" cx="578.66" cy="152.74" r="1.18"/><path class="cls-3" d="M492.07,139.4a1.18,1.18,0,0,1-2.35,0,1.18,1.18,0,1,1,2.35,0Z"/><path class="cls-3" d="M492.06,161.3a1.18,1.18,0,0,1-2.35,0,1.18,1.18,0,1,1,2.35,0Z"/><circle class="cls-3" cx="650.25" cy="310.23" r="1.18"/><path class="cls-3" d="M632.54,374.28a1.18,1.18,0,0,1-2.35,0,1.18,1.18,0,1,1,2.35,0Z"/><circle class="cls-3" cx="633.26" cy="422.4" r="1.18"/><path class="cls-3" d="M549.7,462.1a1.18,1.18,0,1,1-1.17-1.17A1.17,1.17,0,0,1,549.7,462.1Z"/><path class="cls-3" d="M513.66,466.87a1.18,1.18,0,1,1-1.17-1.17A1.17,1.17,0,0,1,513.66,466.87Z"/><circle class="cls-3" cx="495.39" cy="435.66" r="1.18"/><circle class="cls-3" cx="535.35" cy="429.97" r="1.18"/><path class="cls-3" d="M529,408a1.18,1.18,0,1,1-1.17-1.17A1.18,1.18,0,0,1,529,408Z"/><circle class="cls-3" cx="510.51" cy="411.89" r="1.18"/><circle class="cls-3" cx="350.36" cy="371.48" r="1.18"/><path class="cls-3" d="M378,398a1.18,1.18,0,1,1-1.18-1.18A1.18,1.18,0,0,1,378,398Z"/><path class="cls-3" d="M458.09,371.48a1.18,1.18,0,1,1-1.17-1.17A1.17,1.17,0,0,1,458.09,371.48Z"/><circle class="cls-3" cx="425.83" cy="312.26" r="1.18"/><path class="cls-3" d="M371.3,310.21a1.18,1.18,0,1,1-1.18-1.18A1.17,1.17,0,0,1,371.3,310.21Z"/><path class="cls-3" d="M278,176.82a1.18,1.18,0,1,1-1.17-1.17A1.17,1.17,0,0,1,278,176.82Z"/><path class="cls-3" d="M302.78,154.78a1.18,1.18,0,1,1-1.17-1.17A1.17,1.17,0,0,1,302.78,154.78Z"/><circle class="cls-3" cx="284.57" cy="168.02" r="1.18"/><path class="cls-3" d="M342.32,147.25a1.18,1.18,0,1,1-1.17-1.17A1.17,1.17,0,0,1,342.32,147.25Z"/><path class="cls-3" d="M367.8,169.06a1.18,1.18,0,1,1-1.18-1.18A1.17,1.17,0,0,1,367.8,169.06Z"/><path class="cls-3" d="M274.35,118a1.18,1.18,0,1,1-2.35,0,1.18,1.18,0,0,1,2.35,0Z"/><circle class="cls-3" cx="218.48" cy="163.36" r="1.18"/><path class="cls-3" d="M441,431.6a1.18,1.18,0,1,1-1.17-1.18A1.18,1.18,0,0,1,441,431.6Z"/><circle class="cls-4" cx="63.43" cy="92.1" r="60.26"/><path class="cls-5" d="M709,0V197.48A163.89,163.89,0,0,1,508,0Z"/><circle class="cls-6" cx="117.43" cy="392.97" r="70.11"/><circle class="cls-7" cx="546.97" cy="418.03" r="35.29"/></g></g></g></svg>